<svg xmlns="http://www.w3.org/2000/svg" width="42" height="90" fill="none" viewBox="0 0 42 90">
  <g clip-path="url(#a)">
    <path fill="#fff" d="M20.425 5.301c-3.247 20.201-1.517 40.98 5.492 60.229 2.048 5.624 4.513 11.086 7.322 16.374.836 1.575-.134 3.67-1.695 4.356-1.74.766-3.544-.093-4.383-1.674-10.133-19.075-15.318-40.395-14.959-61.981.1-6.062.664-12.104 1.626-18.09.672-4.18 7.274-3.425 6.597.786Z"/>
    <path fill="#fff" d="m16.83 76.417 6.9 2.418 3.547 1.243 1.774.622c.23.08.59.137.789.276-.81-.565-2.553 2.284-2.3 1.028.224-1.107.797-2.237 1.177-3.303l1.247-3.498 2.492-6.997c.581-1.63 2.733-2.553 4.321-1.843 1.695.759 2.468 2.544 1.847 4.287l-2.908 8.163L34.33 82.7c-.577 1.617-1.004 3.277-2.573 4.229-1.603.972-3.336.547-4.985-.03l-4.139-1.451-8.278-2.902c-1.64-.575-2.566-2.707-1.846-4.287.767-1.683 2.567-2.457 4.32-1.842Z"/>
  </g>
  <defs>
    <clipPath id="a">
      <path fill="#fff" d="m.963 4.116 12.834 85.81 27.525-4.117L28.488-.001z"/>
    </clipPath>
  </defs>
</svg>
