<svg xmlns="http://www.w3.org/2000/svg" width="27" height="23" fill="none" viewBox="0 0 27 23">
  <path stroke="#fff" stroke-linecap="round" stroke-linejoin="round" stroke-width="2" d="m24.128 8.828-1.934 9.231c-.239 1.14-.358 1.709-.67 2.135a2.583 2.583 0 0 1-1.092.855c-.498.207-1.106.207-2.323.207H9.317c-1.217 0-1.825 0-2.323-.207a2.582 2.582 0 0 1-1.093-.855c-.311-.426-.43-.996-.67-2.135L3.299 8.83m20.83 0h-2.604m2.604 0h1.302m-22.132 0H1.996m1.302 0h2.604m15.622 0H5.902m15.622 0L17.62 1.37M5.902 8.828l3.905-7.457m0 11.186v3.728m3.906-3.728v3.728m3.906-3.728v3.728"/>
</svg>
