<svg xmlns="http://www.w3.org/2000/svg" width="24" height="51" fill="none" viewBox="0 0 24 51">
  <g clip-path="url(#a)">
    <path fill="#fff" d="M8.23 42.698c.253.067.491.162.72.286l-.513-.292c.243.139.463.304.665.495l-.415-.404c.234.23.432.483.6.761l-.297-.492c.166.284.294.58.39.893l-.16-.556c.096.336.15.676.158 1.024l-.005-.596a3.58 3.58 0 0 1-.116.944l.157-.575c-.075.263-.18.511-.32.748l.298-.497a3.073 3.073 0 0 1-.429.541l.413-.4c-.179.172-.374.32-.59.447l.505-.285c-.256.143-.525.25-.809.327l.571-.152a4.123 4.123 0 0 1-.948.122h.614a4.506 4.506 0 0 1-1.097-.139l.593.157a4.324 4.324 0 0 1-.956-.383l.513.293a3.736 3.736 0 0 1-.755-.565l.415.404a3.276 3.276 0 0 1-.455-.576l.297.492a3.037 3.037 0 0 1-.3-.697l.16.556a3.087 3.087 0 0 1-.102-.764l.005.596a3.43 3.43 0 0 1 .116-.83l-.157.576c.091-.32.223-.622.392-.91l-.297.496a4.27 4.27 0 0 1 .622-.79l-.413.4c.243-.235.508-.437.803-.607l-.505.285c.252-.14.514-.25.793-.328l-.572.152c.258-.066.517-.102.783-.107h-.614c.124 0 .245.007.368.02.593.062 1.214-.082 1.69-.437.443-.33.821-.92.867-1.471.098-1.176-.71-2.364-1.986-2.498-1.338-.14-2.536.2-3.664.87-.96.568-1.653 1.449-2.175 2.399-.518.943-.704 2.11-.564 3.17.166 1.252.831 2.294 1.755 3.153.792.736 1.825 1.134 2.872 1.375 1.067.246 2.163.125 3.196-.178 2.074-.608 3.569-2.651 3.57-4.745 0-.801-.093-1.44-.336-2.209-.173-.549-.466-1.048-.788-1.528-.626-.93-1.694-1.768-2.804-2.063-.623-.166-1.16-.258-1.779-.006-.506.207-1.023.672-1.215 1.182-.205.546-.259 1.183.009 1.727.238.483.668 1.04 1.226 1.189Zm3.23-8.711c-.87-4.75-1.285-9.599-1.598-14.405a140.513 140.513 0 0 1-.203-3.914c-.047-1.27-.07-2.34-.062-3.343a39.75 39.75 0 0 1 .122-3.054c.032-.38.072-.76.128-1.137.025-.163.057-.325.083-.488.07-.437.135-.332 0-.072.05-.099.045-.242.116-.331.258-.32-.2.142-.126.171 0 0 1.008-.845 1.002-.842.397-.22.57-.242 1.119-.293.507-.046 1.168.022 1.86.093 1.35.137 2.487.209 3.236.896.015.014.391.48.514.63.115.141.224.198.14.188-.12-.016-.004-.128-.01-.01-.008.139-.227-.555-.055-.165.125.285-.017.327.026-.092-.073.714-.145 1.402-.309 2.104a25.42 25.42 0 0 1-.15.603c-.085.327.104-.364.006-.03-.027.095-.053.19-.081.283a52.35 52.35 0 0 1-.51 1.603c-.789 2.33-1.72 4.613-2.694 6.874-2.074 4.81-4.306 9.614-6.936 14.163-.603 1.044.187 2.486 1.235 2.916 1.253.514 2.388-.129 2.994-1.176 2.518-4.356 4.661-8.948 6.667-13.545 1.104-2.529 2.16-5.086 3.032-7.7.631-1.893 1.313-3.898 1.286-5.913-.038-2.862-2.765-5.024-5.439-5.67-3.165-.765-6.913-.944-9.475 1.275-1.643 1.423-2.041 3.089-2.21 5.164-.209 2.575-.134 5.183-.032 7.763.237 6.015.703 12.119 1.79 18.057.515 2.812 5.051 2.229 4.533-.603Z"/>
  </g>
  <defs>
    <clipPath id="a">
      <path fill="#fff" d="m6.176.825 16.86 2.187-6.177 47.601L0 48.425z"/>
    </clipPath>
  </defs>
</svg>
