<svg xmlns="http://www.w3.org/2000/svg" width="112" height="40" fill="none" viewBox="0 0 112 40">
  <g clip-path="url(#a)">
    <path fill="#fff" d="M3.822 12.297c26.995-1.13 53.99-2.262 80.984-3.393l23.307-.976L107.06.145C86.589 3.71 66.626 9.687 47.446 17.658c-1.823.757-3.157 2.236-2.839 4.347.29 1.926 1.88 3.433 3.893 3.435 5.517.006 10.863 1.288 15.841 3.662V22.26c-2.743 1.301-5.802 2.381-8.35 4.033-2.942 1.909-4.059 5.672-2.748 8.893 1.584 3.891 5.254 4.57 9.041 4.805 5.095.316 5.076-7.61 0-7.925-.677-.042-1.373-.167-2.05-.173-.215-.002.29.067.274.214-.06.568-.142-.434.063.142.257.722.069-.46.012.25-.041.528-.849.613.054.26.41-.161.807-.383 1.205-.572l6.5-3.085c2.595-1.23 2.587-5.608 0-6.842-6.26-2.985-12.878-4.737-19.842-4.744l1.054 7.783c19.18-7.97 39.142-13.948 59.613-17.513 4.409-.767 3.375-7.968-1.054-7.782L27.13 3.397l-23.308.976c-5.083.213-5.11 8.139 0 7.924Z"/>
  </g>
  <defs>
    <clipPath id="a">
      <path fill="#fff" d="M0 0h112v40H0z"/>
    </clipPath>
  </defs>
</svg>
