<svg xmlns="http://www.w3.org/2000/svg" width="91" height="81" fill="none" viewBox="0 0 91 81">
  <g clip-path="url(#a)">
    <path fill="#fff" d="M63.697 38.198 79.532 26.81l-4.846-1.807 3.121 16.373.446 2.338c.302 1.587 1.853 2.717 3.464 2.437 1.578-.274 2.74-1.866 2.437-3.46l-3.12-16.373c-.15-.78-.298-1.559-.446-2.338-.439-2.3-3.031-3.113-4.846-1.807L59.906 33.56c-1.313.945-1.402 3.014-.423 4.212 1.077 1.319 2.898 1.372 4.214.426Z"/>
    <path fill="#fff" d="M2.931 55.482c11.671 2.937 24.52.184 33.632-7.812 4.902-4.301 9.285-10.743 7.91-17.591-1.235-6.157-6.988-11.375-13.522-9.605-6.613 1.79-9.932 8.094-10.728 14.475-.408 3.266-.358 6.626-.274 9.912.075 2.974.244 5.982.976 8.877 1.529 6.04 5.352 11.16 11.473 13.092 6.178 1.95 12.853.757 18.385-2.45 6.485-3.761 11.736-9.468 16.374-15.274 5.092-6.375 9.319-13.402 12.731-20.806.678-1.47-.325-3.315-1.76-3.85-1.613-.602-3.173.283-3.852 1.757-4.829 10.478-11.626 20.508-20.19 28.306-3.769 3.431-8.166 6.465-13.33 7.165-4.488.608-9.32-.706-11.999-4.554-2.536-3.643-2.81-8.556-2.861-12.845-.061-5.005-.544-11.255 2.747-15.42 2.474-3.13 6.808-3.853 9.038-.075 2.608 4.418-.177 9.503-3.346 12.78-7.35 7.6-19.059 10.89-29.313 8.311-1.568-.395-3.242.123-3.851 1.757-.517 1.386.182 3.453 1.76 3.85Z"/>
  </g>
  <defs>
    <clipPath id="a">
      <path fill="#fff" d="m20.424 0 70.303 26.215-20.424 54.772L0 54.772z"/>
    </clipPath>
  </defs>
</svg>
