<svg version="1.2" xmlns="http://www.w3.org/2000/svg" viewBox="0 0 706 706" width="706" height="706">
	<title>Logo2-rounded-svg</title>
	<defs>
		<clipPath clipPathUnits="userSpaceOnUse" id="cp1">
			<path d="m-44-208h793.7v1122.52h-793.7z"/>
		</clipPath>
		<clipPath clipPathUnits="userSpaceOnUse" id="cp2">
			<path d="m-44-208h793.7v1122.52h-793.7z"/>
		</clipPath>
		<clipPath clipPathUnits="userSpaceOnUse" id="cp3">
			<path d="m47.82 86.53h610.05v338.18h-610.05z"/>
		</clipPath>
		<clipPath clipPathUnits="userSpaceOnUse" id="cp4">
			<path d="m-44-208h793.7v1122.52h-793.7z"/>
		</clipPath>
		<clipPath clipPathUnits="userSpaceOnUse" id="cp5">
			<path d="m47.82 213.04h610.05v211.67h-610.05z"/>
		</clipPath>
		<clipPath clipPathUnits="userSpaceOnUse" id="cp6">
			<path d="m-44-208h793.7v1122.52h-793.7z"/>
		</clipPath>
		<clipPath clipPathUnits="userSpaceOnUse" id="cp7">
			<path d="m-44-208h793.7v1122.52h-793.7z"/>
		</clipPath>
		<clipPath clipPathUnits="userSpaceOnUse" id="cp8">
			<path d="m-44-208h793.7v1122.52h-793.7z"/>
		</clipPath>
		<clipPath clipPathUnits="userSpaceOnUse" id="cp9">
			<path d="m-44-208h793.7v1122.52h-793.7z"/>
		</clipPath>
	</defs>
	<style>
		.s0 { fill: #c0181a } 
		.s1 { fill: #1d1d1b } 
		.s2 { fill: none;stroke: #ffffff;stroke-linecap: round;stroke-linejoin: round;stroke-width: 32.8 } 
		.s3 { fill: none;stroke: #1d1d1b;stroke-linecap: round;stroke-linejoin: round;stroke-width: 10.9 } 
		.s4 { fill: #ffffff } 
		.s5 { fill: none;stroke: #1d1d1b;stroke-linecap: round;stroke-linejoin: round;stroke-width: 5.5 } 
		.s6 { fill: none;stroke: #ffffff;stroke-linecap: round;stroke-miterlimit:10;stroke-width: 1.2 } 
		.s7 { fill: #ffffff;stroke: #ffffff;stroke-linecap: round;stroke-miterlimit:10;stroke-width: 1.2 } 
	</style>
	<g id="g8">
		<g id="g12">
			<g id="Clip-Path: Clip-Path: g14" clip-path="url(#cp1)">
				<g id="Clip-Path: g14">
					<g id="g14">
						<g id="g20">
							<path id="path22" class="s0" d="m705.7 353.3c0-194.9-158-352.9-352.8-352.9-194.9 0-352.9 158-352.9 352.9 0 194.8 158 352.8 352.9 352.8 194.8 0 352.8-158 352.8-352.8z"/>
						</g>
					</g>
				</g>
			</g>
		</g>
		<g id="g24">
			<g id="Clip-Path: Clip-Path: g26" clip-path="url(#cp2)">
				<g id="Clip-Path: g26">
					<g id="g26">
						<g id="g32">
							<g id="g34">
							</g>
							<g id="g58">
								<g id="Clip-Path: Clip-Path: g56" clip-path="url(#cp3)">
									<g id="Clip-Path: g56">
										<g id="g56">
											<g id="g42">
												<path id="path40" class="s1" d="m657.9 311c-35.9 24.7-44.7 29.6-77.5 49.4-135.6-66.5-301.9-57.1-431.2 16.1-38.5-23.9-66.6-48.9-101.4-73.5 95.2 4.7 122.5-39.9 142.8-90 20.9-51.5 34.4-108.8 107.2-123.9 21.3 117 131.4 93 135.6-2.6 75.8 37.6 82.2 87.4 99.5 131.8 15.1 39 38.7 73.9 125 92.7z"/>
											</g>
											<g id="g46">
												<path id="path44" class="s1" d="m533.4 218.1c69.9 10.8 99.5 46.4 124.5 92.9-86.3-18.8-109.9-53.7-125-92.7z"/>
											</g>
											<g id="g50">
												<path id="path48" class="s1" d="m172.8 395.5c-6.8 0.8-18 0.5-23.2-8.6-1.8-3.2-2.4-7.3-0.4-10.4 129.3-73.2 295.6-82.6 431.2-16.1 0.7 3.3-5.1 11.3-14.9 14.5-5.2 1.8-11.9 5-19.8 0.2 8.6 5.2 11 24.7 3.2 26.5 5.4 3 6.2 14.1 2.1 17.8-102.9-36.2-228.4-38.5-326.6-1.9-11.9 4.3-19.2 7.1-29.4 7.2-6.8 0.1-14.4-1.2-18.8-6.5-4.9-6.1-3.8-15.3 0.5-21.8z"/>
											</g>
											<g id="g54">
												<path id="path52" class="s1" d="m47.8 303c32.3-52 78.1-74.4 142.8-90-20.3 50.1-47.6 94.7-142.8 90z"/>
											</g>
										</g>
									</g>
								</g>
							</g>
						</g>
						<g id="g60">
							<path id="path62" fill-rule="evenodd" class="s2" d="m47.8 303c32.3-52 78.1-74.4 142.8-90"/>
						</g>
						<g id="g64">
							<path id="path66" fill-rule="evenodd" class="s2" d="m47.8 303c95.2 4.7 122.5-39.9 142.8-90 20.9-51.5 34.4-108.8 107.2-123.9"/>
						</g>
						<g id="g68">
							<path id="path70" fill-rule="evenodd" class="s2" d="m433.4 86.5c-4.2 95.6-114.3 119.5-135.6 2.6"/>
						</g>
						<g id="g72">
							<path id="path74" fill-rule="evenodd" class="s2" d="m657.9 311c-86.3-18.8-109.9-53.7-125-92.7-17.3-44.4-23.7-94.2-99.5-131.8"/>
						</g>
						<g id="g76">
							<path id="path78" fill-rule="evenodd" class="s2" d="m533.4 218.1c69.9 10.8 99.5 46.4 124.5 92.9"/>
						</g>
						<g id="g80">
							<path id="path82" fill-rule="evenodd" class="s2" d="m149.2 376.5c129.3-73.2 295.6-82.6 431.2-16.1"/>
						</g>
						<g id="g84">
							<path id="path86" fill-rule="evenodd" class="s2" d="m47.8 303c34.8 24.6 62.9 49.6 101.4 73.5"/>
						</g>
						<g id="g88">
							<path id="path90" fill-rule="evenodd" class="s2" d="m580.4 360.4c32.8-19.8 41.6-24.7 77.5-49.4"/>
						</g>
						<g id="g92">
							<path id="path94" fill-rule="evenodd" class="s2" d="m149.2 376.5c-2 3.1-1.4 7.2 0.4 10.4 5.2 9.1 16.4 9.4 23.2 8.6 2.5-0.3 4.4-0.8 5.3-1.1"/>
						</g>
						<g id="g96">
							<path id="path98" fill-rule="evenodd" class="s2" d="m176.7 396.4c-4.3 6.5-5.4 15.7-0.5 21.8 4.4 5.3 12 6.6 18.8 6.5 10.2-0.1 17.5-2.9 29.4-7.2"/>
						</g>
						<g id="g100">
							<path id="path102" fill-rule="evenodd" class="s2" d="m545.7 375.1c7.9 4.8 14.6 1.6 19.8-0.2 9.8-3.2 15.6-11.2 14.9-14.5"/>
						</g>
						<g id="g104">
							<path id="path106" fill-rule="evenodd" class="s2" d="m545.7 375.1c8.6 5.2 11 24.7 3.2 26.5 5.4 3 6.2 14.1 2.1 17.8"/>
						</g>
						<g id="g108">
							<path id="path110" fill-rule="evenodd" class="s2" d="m224.4 417.5c98.2-36.6 223.7-34.3 326.6 1.9"/>
						</g>
					</g>
				</g>
			</g>
		</g>
		<g id="g112">
			<g id="Clip-Path: Clip-Path: g114" clip-path="url(#cp4)">
				<g id="Clip-Path: g114">
					<g id="g114">
						<g id="g120">
							<g id="g122">
							</g>
							<g id="g142">
								<g id="Clip-Path: Clip-Path: g140" clip-path="url(#cp5)">
									<g id="Clip-Path: g140">
										<g id="g140">
											<g id="g130">
												<path id="path128" class="s1" d="m533.4 218.1c69.9 10.8 99.5 46.4 124.5 92.9-86.3-18.8-109.9-53.7-125-92.7z"/>
											</g>
											<g id="g134">
												<path id="path132" class="s1" d="m172.8 395.5c-6.8 0.8-18 0.5-23.2-8.6-1.8-3.2-2.4-7.3-0.4-10.4 129.3-73.2 295.6-82.6 431.2-16.1 0.7 3.3-5.1 11.3-14.9 14.5-5.2 1.8-11.9 5-19.8 0.2 8.6 5.2 11 24.7 3.2 26.5 5.4 3 6.2 14.1 2.1 17.8-102.9-36.2-228.4-38.5-326.6-1.9-11.9 4.3-19.2 7.1-29.4 7.2-6.8 0.1-14.4-1.2-18.8-6.5-4.9-6.1-3.8-15.3 0.5-21.8z"/>
											</g>
											<g id="g138">
												<path id="path136" class="s1" d="m47.8 303c32.3-52 78.1-74.4 142.8-90-20.3 50.1-47.6 94.7-142.8 90z"/>
											</g>
										</g>
									</g>
								</g>
							</g>
						</g>
						<g id="g144">
							<path id="path146" fill-rule="evenodd" class="s3" d="m47.8 303c32.3-52 78.1-74.4 142.8-90"/>
						</g>
						<g id="g148">
							<path id="path150" fill-rule="evenodd" class="s3" d="m47.8 303c95.2 4.7 122.5-39.9 142.8-90 20.9-51.5 34.4-108.8 107.2-123.9"/>
						</g>
						<g id="g152">
							<path id="path154" fill-rule="evenodd" class="s3" d="m433.4 86.5c-4.2 95.6-114.3 119.5-135.6 2.6"/>
						</g>
						<g id="g156">
							<path id="path158" fill-rule="evenodd" class="s3" d="m657.9 311c-86.3-18.8-109.9-53.7-125-92.7-17.3-44.4-23.7-94.2-99.5-131.8"/>
						</g>
						<g id="g160">
							<path id="path162" fill-rule="evenodd" class="s3" d="m533.4 218.1c69.9 10.8 99.5 46.4 124.5 92.9"/>
						</g>
						<g id="g164">
							<path id="path166" fill-rule="evenodd" class="s3" d="m149.2 376.5c129.3-73.2 295.6-82.6 431.2-16.1"/>
						</g>
						<g id="g168">
							<path id="path170" fill-rule="evenodd" class="s3" d="m47.8 303c34.8 24.6 62.9 49.6 101.4 73.5"/>
						</g>
						<g id="g172">
							<path id="path174" fill-rule="evenodd" class="s3" d="m580.4 360.4c32.8-19.8 41.6-24.7 77.5-49.4"/>
						</g>
						<g id="g176">
							<path id="path178" fill-rule="evenodd" class="s3" d="m149.2 376.5c-2 3.1-1.4 7.2 0.4 10.4 5.2 9.1 16.4 9.4 23.2 8.6 2.5-0.3 4.4-0.8 5.3-1.1"/>
						</g>
						<g id="g180">
							<path id="path182" fill-rule="evenodd" class="s3" d="m176.7 396.4c-4.3 6.5-5.4 15.7-0.5 21.8 4.4 5.3 12 6.6 18.8 6.5 10.2-0.1 17.5-2.9 29.4-7.2"/>
						</g>
						<g id="g184">
							<path id="path186" fill-rule="evenodd" class="s3" d="m545.7 375.1c7.9 4.8 14.6 1.6 19.8-0.2 9.8-3.2 15.6-11.2 14.9-14.5"/>
						</g>
						<g id="g188">
							<path id="path190" fill-rule="evenodd" class="s3" d="m545.7 375.1c8.6 5.2 11 24.7 3.2 26.5 5.4 3 6.2 14.1 2.1 17.8"/>
						</g>
						<g id="g192">
							<path id="path194" fill-rule="evenodd" class="s3" d="m224.4 417.5c98.2-36.6 223.7-34.3 326.6 1.9"/>
						</g>
					</g>
				</g>
			</g>
		</g>
		<g id="g196">
			<g id="Clip-Path: Clip-Path: g198" clip-path="url(#cp6)">
				<g id="Clip-Path: g198">
					<g id="g198">
						<g id="g204">
							<path id="path206" fill-rule="evenodd" class="s3" d="m132.1 364.3c3.6-4.4 11.1-9.5 22.2-15.7"/>
						</g>
						<g id="g208">
							<path id="path210" fill-rule="evenodd" class="s3" d="m578.4 335.1c6.6 3.3 15.2 8 20.5 12.5"/>
						</g>
						<g id="g212">
							<path id="path214" class="s4" d="m418.5 206.4c-38.8 9.8-76.2 27.8-109.6 49.7-9.1 6-0.6 20.8 8.7 14.8 32.9-21.3 68.1-36.3 105.4-48 10.5-3.3 6.2-19.3-4.5-16.5z"/>
						</g>
						<g id="g216">
							<path id="path218" class="s4" d="m424 255c-34.1-21.5-72.8-37.5-111.3-48.9-10.6-3.2-15.1 13.2-4.6 16.5 37.8 11.8 72.6 28.2 107.2 47.3 9.7 5.3 18-9 8.7-14.9z"/>
						</g>
						<g id="g220">
							<path id="path222" fill-rule="evenodd" class="s5" d="m76.4 321.5c7.3 0 17.3-0.9 26.7-2.9"/>
						</g>
						<g id="g224">
							<path id="path226" fill-rule="evenodd" class="s5" d="m614.7 318.8c5.2 1.8 15.5 4.8 25.3 5.7"/>
						</g>
						<g id="g228">
							<path id="path230" class="s1" d="m622.1 320.5c-1.7-0.1-3.3-1.1-4.9-1.4q-4.5-1.1-8.7 0.6c-1.4 0.6-2.6 1.4-3.7 2.4q-1.2-0.5-2.7-0.6c-4.8-0.5-9 1.4-12.4 4.6-3.6 3.2-3.5 9.5 0 12.8 5.5 5.3 13.6 7 20.5 3 0.7-0.4 3.8-2.6 5.5-4.6q0.5 0.2 1.1 0.3c1.8 0.4 3.5 0.6 5.3 0.4 11-1.4 11.6-16.9 0-17.5z"/>
						</g>
						<g id="g232">
							<path id="path234" class="s1" d="m133.9 341.7q-0.2-0.1-0.5-0.2-0.9-0.6-1.8-1.1c-1.8-1.2-3.6-2.4-5.3-3.7-4.1-3.2-7.8-6.2-12.5-8.7-3.6-2-6.7-4.9-10.4-6.8-4.5-2.3-9.2-1.9-14-1.2-9.7 1.4-7.4 17.3 2.3 17 3.4-0.1 3.8-0.1 6.4 2 1.9 1.4 3.7 2.5 5.8 3.7 4.9 2.9 8.8 6.2 13.4 9.6 7.2 5.5 16 11.7 24.2 4.4 7.1-6.3 0-15.8-7.6-15z"/>
						</g>
					</g>
				</g>
			</g>
		</g>
		<g id="g236">
			<g id="Clip-Path: Clip-Path: g238" clip-path="url(#cp7)">
				<g id="Clip-Path: g238">
					<g id="g238">
						<g id="g244">
							<path id="path246" class="s4" d="m307 339.7c-11.2 2.8-22.2 5.3-33.2 8.1-10.9 2.8-21.7 5.7-32.4 9.1-10.7 3.5-21.2 7.3-31.3 12-10 4.8-19.7 10.4-28.1 18.3 2.9-5 6.8-9.4 11.1-13.4 4.3-4 9.1-7.4 14.1-10.4 10-6 20.7-10.5 31.7-14.1 11.1-3.5 22.4-6 33.7-7.7 11.4-1.6 22.9-2.4 34.4-1.9z"/>
						</g>
						<g id="g248">
							<path id="path250" class="s4" d="m242.2 384.7c3.7-3.4 8.1-5.9 12.4-8.5q6.6-3.7 13.5-6.6c9.2-4 18.8-7.2 28.6-9.5 9.7-2.4 19.8-3.8 29.9-4.2 10-0.3 20.3 0.5 29.9 3.5-10.1 0.3-19.7 1.3-29.4 2.8-9.6 1.5-19.1 3.4-28.6 5.7q-14.2 3.4-28.2 7.6c-4.8 1.3-9.4 2.8-14.1 4.3-4.7 1.5-9.4 3-14 4.9z"/>
						</g>
						<g id="g252">
							<path id="path254" class="s4" d="m428.2 346.1c9-2.3 18.4-3.3 27.7-3.4 9.3-0.1 18.7 0.8 27.9 2.4 9.2 1.5 18.3 3.9 27.1 7.1 8.7 3.2 17.3 7.1 25.1 12.1-9.1-2-18-4.1-26.9-6.1-8.9-1.9-17.8-3.7-26.7-5.3q-13.3-2.3-26.8-3.9c-9.1-1.1-18.2-1.9-27.4-2.9z"/>
						</g>
						<g id="g256">
							<path id="path258" class="s4" d="m192.6 239.9c6.3-0.6 10.4-2.1 18.9-2.8-4.5-2.2-10-2.4-14.4-4.7z"/>
						</g>
						<g id="g260">
							<path id="path262" fill-rule="evenodd" class="s6" d="m192.6 239.9c6.3-0.6 10.4-2.1 18.9-2.8-4.5-2.2-10-2.4-14.4-4.7z"/>
						</g>
						<g id="g264">
							<path id="path266" class="s7" d="m200.4 224c8.6-2.5 17.2-2 25.8-4.5-9-2.7-15.5-3.7-21.1-6.9"/>
						</g>
						<g id="g268">
							<path id="path270" class="s7" d="m106.7 235.7c-3.6 8.9-6.1 18.2-7.6 27.7-2.7-7.5-3.9-15.4-5-23.2"/>
						</g>
						<g id="g272">
							<path id="path274" class="s7" d="m542.2 264.5c-5.1 2.6-8.5 5-18.8 9 13.1 0.7 17-0.7 28.5-0.8"/>
						</g>
						<g id="g276">
							<path id="path278" class="s7" d="m499.2 163.9c-5.7 4.6-12.1 8.5-18.8 11.5 7.2-0.8 19.7-1.1 24.1-0.9"/>
						</g>
						<g id="g280">
							<path id="path282" class="s7" d="m267.3 112.5c1 8.1 1.4 16.2 1.3 24.4-4.2-6.1-9.1-11.8-14.6-16.7"/>
						</g>
						<g id="g284">
							<path id="path286" class="s7" d="m652.8 283.9c-7.2 3.1-10.4 4.5-17.6 7.6 10.4 0.3 12.8 0.8 21.7 1.2"/>
						</g>
						<g id="g288">
							<path id="path290" class="s7" d="m530.3 248.7q-5.4 1.9-10.8 3.8c7.3 1.5 10.8 1.2 18.2 2.5"/>
						</g>
					</g>
				</g>
			</g>
		</g>
		<g id="g292">
			<g id="Clip-Path: Clip-Path: g294" clip-path="url(#cp8)">
				<g id="Clip-Path: g294">
					<g id="g294">
						<g id="g300">
							<path id="path302" class="s4" d="m146.6 598.6c-4.7 0-9.2-2.2-12.1-6l-3.3-4.3c-5.1-6.6-3.9-16.1 2.6-21.3l7.9-6.3c1.9-1.5 4.2-2.6 6.7-3l6.6-1.3q0.1-0.7 0.2-1.4 0-0.2 0-0.3c0.1-1.9 0.2-6 0-14.6l-0.4-14.9q0-2 0.5-4 0.4-1.7 0.9-3.5-0.7-1.9-1-3.9c-0.1-0.7-0.5-2.7-1.9-8.2q-0.1-0.6-0.3-1.3c-0.7-5-1.1-9.1-1.1-12.5 0-2.4 0.5-4.7 1.6-6.8l0.3-0.7q0.5-0.9 1-1.8 0-0.6 0.1-1.3l0.2-1.7q-0.3-0.6-0.5-1.2c-7.8 5.7-15.2 8.9-22.5 10q-1.1 0.1-2.1 0.1c-5.5 0-10.7-3-13.4-7.9-3.1-5.6-2.4-12.5 1.7-17.3 3.7-4.5 7.8-10.9 8.3-13.3 0.1-0.3 0.1-0.5 0.2-0.9 2.7-11.7 6.9-19.3 13.2-23.8 8.1-5.7 21.6-9.7 43.7-13q1.7-0.4 3.4-0.4h14.1c7.8 0 14.3 5.9 15.2 13.6l0.7 5.6q0.1 0.8 0.1 1.7c0 3.3-1 6-2 8.5q-0.2 0.4-0.4 0.9c1.4 2.7 1.9 5.7 1.6 8.7-1.3 11.9-2.3 22.6-3 31.9-0.8 9-1.1 16.9-1.1 23.5 0 33.4 1.6 47.6 2.8 53.5q2.1 0.7 4.4 1.4c3.9 1.3 8.7 2.8 14.3 4.5 5.8 1.8 9.9 6.8 10.7 12.8 0.7 6-2.2 11.9-7.3 15-5.7 3.4-11.8 5.2-18.1 5.2l-53.9-0.4c-2.2 0-4.2-0.4-6.1-1.2q-0.4 0-0.7 0.1c-2.9 0.4-6.1 0.9-9.9 1.3q-0.9 0.2-1.9 0.2z"/>
						</g>
						<g id="g304">
							<path id="path306" fill-rule="evenodd" class="s4" d="m231.6 423.6l0.7 5.6q0.2 1.8 0.2 3.5c0 3.6-0.6 6.8-1.4 9.6q0.7 3.3 0.7 6.8 0 2-0.2 4c-1.3 11.5-2.2 21.8-3 30.8-0.7 8.6-1 16.1-1 22.3 0 21.3 0.7 34.2 1.4 41.9q4.2 1.3 9.3 2.9c11.6 3.6 19.9 13.6 21.4 25.6 1.5 12-4.3 23.7-14.6 29.9-8.1 4.9-16.8 7.4-26 7.4q-0.1 0-0.2 0l-53.8-0.3q-3.8-0.1-7.3-0.9c-2.2 0.3-4.7 0.6-7.4 1q-1.9 0.2-3.8 0.2c-9.4 0-18.4-4.4-24.3-12l-3.3-4.3c-10.1-13.2-7.8-32.2 5.3-42.6l7.8-6.3c2.4-1.8 5-3.4 7.8-4.5q0-1.6-0.1-3.7 0-0.1 0-0.2l-0.3-14.8c-0.1-2.6 0.2-5.2 0.8-7.8q-0.1-0.7-0.2-1.4c-0.2-0.8-0.6-2.7-1.7-7q-0.3-1.3-0.5-2.6-0.3-2-0.5-3.8-1.6 0.3-3.2 0.5-2.1 0.3-4.3 0.3c-11 0-21.5-5.9-26.9-15.9-6.1-11.1-4.7-24.8 3.6-34.5 1.9-2.4 4.3-5.8 5.2-7.7 3.5-15.3 9.8-26.1 19.3-32.9q0.1 0 0.1-0.1c10.2-7.1 25.1-11.8 49.7-15.5q3-0.6 6.2-0.6h14.1c15.5 0 28.6 11.7 30.4 27.1zm-44.1 3.6q-29.8 4.2-38.6 10.5-4.5 3.2-7.1 14.7c-1.4 8.3-11.8 20.7-11.8 20.7q9.5-1.3 21.2-11.8 11.1-9.5 18.3-9.5h1l0.3 9.5q0 2.3-2 11.4l10.2 11.5-8.5-4.2-0.3 2.9 16.9 25.6q-11.7-11.8-19.6-17.4l-0.3 0.7q0 3.9 1 10.1 2.3 9.2 2.3 10.2l3.6-1.3 0.6 0.6q-1.6 4.3-2.7 7.6-1.2 3.3-1.8 5.9l0.3 14.7q0.3 11.2 0 16.1-0.3 7.2-3.6 14.1l-15.7 2.9-7.8 6.3 3.2 4.2q5.3-0.6 9.4-1.3 4-0.6 7.6-1.3 4.3-1 16.4-5.9l-14.7 8.2 53.8 0.3q5.2 0 10.2-2.9-8.5-2.6-14.6-4.6-6-2-10.3-3-7.5-3.6-7.5-66.5 0-10.5 1.2-24.8 1.1-14.2 3.1-32.3-1.7 0.4-3 0.5-1.3 0.2-1.9 0.2h-1q0.3-1.3 1.1-3.5 0.8-2.1 2.5-5.7 1.3-3.3 2.1-5.2 0.8-2 0.8-2.7l-0.6-5.5zm0 0h-0.4zm0 0h0.1"/>
						</g>
						<g id="g308">
							<path id="path310" fill-rule="evenodd" class="s4" d="m294.6 598.9c-3.8 0-8.6-1-13.5-4.6-8.4 2.5-19.1 3.6-32.5 3.6h-6.2c-2.8 0-5.2-0.2-7.3-0.6-5.4-1.1-9.8-4.9-11.5-10.1-1.8-5.2-0.6-10.9 3-15 9.2-10.5 17.5-19.8 24.6-27.5 7.1-7.7 13.4-14.2 18.5-19.3q0.6-0.6 1.3-1.2c0.5-3.2 2.1-6.2 4.6-8.6 4.1-3.9 7.3-7 9.4-9.2 2.9-3.1 4.5-4.6 5.8-5.6q0.6-0.5 1.3-1.1c0.2-2.2 0.9-4.4 2.2-6.4 10-16.4 11.1-24.1 11.1-26.6 0-3.6 0-8.5-17-8.5-4.7 0-8.9 1.1-12.8 3.4q-0.2 0.1-0.3 0.2c-1.6 0.9-2.5 1.6-3 2.1 0.9 1.1 3.1 3.5 8.9 6.9 6.3 3.7 9.1 11.5 6.6 18.4-2.3 6.2-8.1 10.1-14.4 10.1q-1.3 0-2.6-0.2c-14.4-2.5-23.5-5.6-29.2-10.1-6.6-4.9-14.2-14.3-14.2-32.1 0-11.3 5.4-26.9 31.4-37.4 12.8-5.3 26.8-8 41.3-8 5.5 0 11.8 0.7 19.4 2.3q0.1 0 0.2 0c12.6 2.7 19.1 5.9 23.2 11.1q0.9 1.1 1.5 2.3 0.1 0.1 0.3 0.1c6.4 1.6 11 7.1 11.5 13.6 5.1 5.2 9.6 13.7 9.6 27.4 0 16.6-9.8 36.1-29.9 59.6q1-0.2 2.1-0.2 0.8 0 1.6 0.1c33 3.3 36.6 24.1 36.6 32.9 0 15.2-9.2 27.2-25.3 32.8q-0.3 0.1-0.5 0.1c-3.8 1.2-8.3 2.1-13.8 2.7-5 0.6-11 1-17.6 1.3q-0.3 0-0.6 0c-2.1 0-4.1-0.4-6-1.3q-8.4 2.6-17.8 2.6zm28.1-56.4q-4.5 4.7-9.2 9.3c4.6-0.1 8.4-0.3 11.5-0.6-1.6-2.6-2.4-5.6-2.3-8.7z"/>
						</g>
						<g id="g312">
							<path id="path314" fill-rule="evenodd" class="s4" d="m322.5 398.7q0.2 0.1 0.5 0.1c11.5 2.5 23.3 6.2 31.3 15.8 7.9 3.8 13.8 10.9 16.2 19.3q3 3.9 5.3 8.6c3.5 7.4 5.3 16.1 5.3 25.8 0 15.3-5.9 31.4-18.2 49.6 20.7 9 28.6 26.7 28.6 42.8 0 21.8-13.3 39.5-35.6 47.3q-0.5 0.1-1 0.3c-4.7 1.4-10.1 2.5-16.5 3.3-5.4 0.6-11.8 1.1-18.9 1.3q-0.5 0-1.1 0-3.2 0-6.3-0.6c-5.6 1.3-11.5 1.9-17.5 1.9-4 0-9.7-0.7-15.9-3.5-8.5 1.7-18.5 2.5-30.1 2.5h-6.2c-3.9 0-7.2-0.3-10.3-0.9-10.8-2.1-19.5-9.9-23-20.2-3.5-10.4-1.3-21.8 5.9-30 9.3-10.6 17.7-20 25-27.8 6.6-7.1 12.4-13.3 17.4-18.3q0.7-1.8 1.6-3.6c-12-2.7-20.3-6.2-26.8-11.2-7.9-5.9-20.2-19.2-20.2-44.3 0-13.1 5.3-37.2 41-51.6 14.7-6.1 30.6-9.1 47.1-9.1 6.5 0 13.8 0.8 22.4 2.5zm-57.9 35q-21.9 8.8-21.9 23.2 0 14 8.1 19.9 5.3 4.2 22.6 7.2-16.7-9.8-16.7-19.9 0-9.5 11.1-15.7 9.5-5.6 20.6-5.6 32.3 0 32.3 23.9 0 12.7-13.4 34.6l4.3 0.3 5.9-0.6q-5.6 3.2-9.8 6.2-4.3 2.9-7.2 5.5-1 0.7-4.4 4.3-3.5 3.6-10 9.7 6.2 0.1 9.5 2.3-4.6 2.6-8.5 4.3-3.9 1.6-6.5 2.9-7.6 7.5-18.2 19-10.6 11.4-24.3 27.1 1.6 0.3 4.3 0.3h6.2q26.4 0 36.5-6.6 4.6 7.6 9.5 7.6 17 0 28.7-10.8l-4.9 9.5q9.5-0.4 16.4-1.2 6.8-0.8 11.1-2.1 15-5.2 15-18.3 0-15.3-22.9-17.6 13.1 8.1 13.1 13.4 0 10.7-46.1 10.7-7.5 0-15.3-0.3-7.8-0.3-15.3-1 25.7-20.5 47.3-45 28.7-32.7 28.7-52.6 0-15.3-9.4-19.9v-6.2q-6.6-1.6-12.8-2.8-6.2-1.1-12.1-2.1h-0.3l15-2.9q-2.2-3-14.3-5.6-9.8-2-16.4-2-18.9 0-35.5 6.9z"/>
						</g>
						<g id="g316">
							<path id="path318" fill-rule="evenodd" class="s4" d="m419.3 597.9c-7.5 0-13.9-5.4-15.1-12.8-1.3-7.6 3.3-14.9 10.6-17.2 0.2 0 2-0.8 6.3-4q0.3-0.3 0.6-0.5 2.4-1.6 4.2-2.9-0.3-1.1-0.6-2.3c-1.5-6.3 1-12.9 6.4-16.5l0.2-0.1c-1.6-2.5-2.5-5.4-2.5-8.3v-19.3c0-3.9 1.5-7.6 4.2-10.4l1.1-1.3q-1.3-1.4-2.4-2.9c-4.4-6.2-6.1-14.5-5.1-25.3 0.3-2.5 1.1-4.9 2.5-7q-1.6-3.4-2.6-6.6-0.9 0.5-1.9 0.9c-2 0.9-4.1 1.3-6.2 1.3-4 0-7.9-1.5-10.8-4.4l-0.4-0.4c-2.8-2.8-4.5-6.7-4.5-10.8 0-8.2 5.5-14.7 14.3-22.6q0.2-0.1 0.4-0.3c2.9-2.4 5.2-4.3 7.2-5.9 2.6-2 4.9-3.5 7.1-4.8 2-1.1 4.2-1.8 6.4-1.9 3-0.3 6-0.4 8.9-0.6q4.1-0.1 8.5-0.1 0.4-0.2 1.3-0.5c4.4-2 9.4-3.1 14.9-3.4q4.4-0.3 8-0.3 1.9 0 3.6 0.1c2.5 0.1 4.7 0.1 6.3 0.1 28 0 48.9 4.2 63.7 12.9 21.5 12.6 26 30.1 26 42.6 0 11.4-3.3 21.4-9.6 29.7 17.5 12.1 20.7 29.4 20.7 40.5 0 27.9-15.1 48.1-42.7 56.8-13.6 4.4-35.2 6.5-65.9 6.6h-2.9l-10.3 0.6q-0.2 0-0.5 0l-49 1.3q-0.2 0-0.4 0zm75.7-44.7c3.2 1.4 5.3 2.4 6.5 2.9 11.6-0.2 15.6-1.6 16.5-2 1.4-1 3-1.9 4.7-2.4q0.1-0.9 0.3-1.7-0.2-1.7-0.2-3.7c0-3.8 1.4-7.4 3.9-10.2-0.2-6.3-2.7-16.6-31.4-17.2l-1.9 24.4c-0.1 1-0.1 3 0.5 6.1q0.4 1.7 1.1 3.8z"/>
						</g>
						<g id="g320">
							<path id="path322" fill-rule="evenodd" class="s4" d="m484.5 391.5c2.9 0.1 4.7 0.1 5.7 0.1 30.8 0 54.2 4.9 71.4 15 21.7 12.6 33.7 32.5 33.7 55.8 0 9.4-1.9 18.4-5.4 26.5 10.8 11.6 16.5 26.7 16.5 43.7 0 34.6-19.5 60.6-53.4 71.4-15.4 4.9-37.9 7.2-70.5 7.3-0.1 0-2.5 0-2.5 0l-9.9 0.6q-0.5 0-1 0l-49 1.3q-0.4 0-0.8 0c-15 0-27.8-10.8-30.2-25.7-2.4-14.6 6-28.7 19.7-33.7q0.3-0.2 0.8-0.5c0.2-5.5 1.9-10.9 4.9-15.5q-0.4-2.2-0.4-4.5v-19.3c0-4 0.8-7.9 2.3-11.5-3.6-7.1-5.1-15.5-4.7-25.3-5.3-1.3-10.3-4-14.4-8.1l-0.3-0.3c-5.8-5.8-9-13.6-9-21.7 0-16.7 12.6-27.9 19.4-34q0.4-0.4 0.8-0.7c2.9-2.4 5.4-4.5 7.7-6.2 3.1-2.4 6-4.4 8.8-6 3.9-2.2 8.3-3.6 12.9-3.9q4.7-0.4 9.4-0.6 3-0.1 6.1-0.2c5.5-2.1 11.7-3.5 18.3-3.8q0 0 0.1 0c3.2-0.2 6.2-0.3 8.8-0.3q2.2 0 4.2 0.1zm-11.3 30.8q-5.6 0.3-9.6 2.1-4.1 1.8-6.7 1.8-4.6 0-8.7 0.2-4.1 0.1-8.3 0.4-2.3 1.4-5.2 3.6-3 2.3-6.9 5.6-9.1 8.1-9.1 11.1l0.3 0.3q2.9-1.3 6.4-3.4 3.4-2.1 7.6-4.8l6.2 0.4 7.2-0.4q-5.5 4.6-5.5 10.8 0 5.9 4.2 13.7 2.9 5.9 4.4 9 1.5 3.1 1.8 3.8l-0.3 0.3q-1.7-0.7-3.4-1.1-1.8-0.5-3.8-1.2l-1.3 1q-1 10.4 2.3 15 3.2 4.6 13.4 9.1l-13.4 14.4v19.3l20.9 27.1h-1q-7.5-2.3-13.2-4.1-5.7-1.8-9.3-3.1l-2 1.3q0.7 2.6 1.5 4.7 0.8 2.2 1.8 4.4l-2.6 5.3q-1 0.6-3.6 2.4-2.6 1.8-6.9 4.7-6.8 5.3-11.1 6.6l49-1.3 10.8-0.7h2.6q43.7 0 62-5.9 32-10.1 32-42.1 0-29-36.2-36.5 25.1-10.2 25.1-33.7 0-18.6-18.4-29.4-18.5-10.7-56-10.7-2.7 0-6.9-0.2-1.4 0-3 0-3.2 0-7.1 0.2zm10.1 142.3q-3.3-6.5-4.4-12.2-1.1-5.7-0.8-10.3l2.9-37.6q3.3-0.9 11.8-0.9 49.3 0 49.3 34.2l12.4 13.8q-0.3 0-0.3 0.3-5.6-1.6-9.5-3.1-3.9-1.5-6.5-2.5 0 3.3 0.6 4.6l0.3-0.3 4.9 5.5q-1.6-0.6-3.1-1.3-1.4-0.6-2.7-1.3l-0.3 0.3q0.3 0.2 1.2 2.3-4.2 8.5-11.7 10.2-6.2 5.2-28.7 5.2-0.7 0-15.4-6.9zm54.5-10.8h0.1q0-0.1 0-0.1-0.1 0-0.1 0.1zm-55.5 26.8h-0.6z"/>
						</g>
						<g id="g324">
							<path id="path326" class="s4" d="m396.6 599.3q-1.3 0-2.6-0.1c-19.4-1.1-31.3-13.4-30.3-31.4 0.4-8.1 4.2-15.3 10.9-20.7 5.8-4.6 12.7-7 20.1-7q0.9 0 1.9 0.1c7.4 0.4 14.2 2.9 20 7.4 7.4 5.7 11.2 13.7 10.7 22.7-1 17.9-12.8 29-30.7 29z"/>
						</g>
						<g id="g328">
							<path id="path330" fill-rule="evenodd" class="s4" d="m397.4 524.9c10.5 0.5 20.4 4.2 28.6 10.6 11.3 8.7 17.3 21.7 16.6 35.6-1.5 26-19.9 43.5-46 43.5q-1.7 0-3.5-0.1c-13.1-0.7-23.8-5-31.8-12.8-9.1-8.8-13.7-21.1-12.9-34.8 0.6-12.4 6.6-23.6 16.7-31.7 8.4-6.8 18.7-10.4 29.6-10.4q1.3 0 2.7 0.1zm-13.2 34.2q-4.9 4-5.2 9.5-0.8 14.4 15.8 15.3 0.9 0 1.8 0 14.6 0 15.4-14.5 0.3-5.8-4.7-9.7-5.1-3.9-11.6-4.2-0.5-0.1-1-0.1-5.9 0-10.5 3.7z"/>
						</g>
					</g>
				</g>
			</g>
		</g>
		<g id="g332">
			<g id="Clip-Path: Clip-Path: g334" clip-path="url(#cp9)">
				<g id="Clip-Path: g334">
					<g id="g334">
						<g id="g340">
							<path id="path342" class="s4" d="m146.6 592.4c-2.8 0-5.5-1.3-7.3-3.6l-3.2-4.2c-3.1-4-2.4-9.7 1.5-12.8l7.9-6.3c1.2-0.9 2.5-1.5 4-1.8l10.7-2q0.9-3.2 1.1-6.4 0-0.1 0-0.2c0.2-3 0.2-8.1 0-15.2l-0.4-14.8q0-1.3 0.3-2.5 0.6-2.5 1.6-5.4c-0.8-1.3-1.4-2.8-1.5-4.3-0.1-0.6-0.5-2.5-2-8.8q-0.1-0.4-0.2-0.7c-0.7-4.7-1.1-8.5-1.1-11.6 0-1.5 0.3-2.9 1-4.1l0.3-0.7q0.7-1.4 1.8-2.5-0.2-1.3-0.1-2.6l0.3-3q0.1-0.3 0.1-0.7c-1.5-2.1-2.1-4.8-1.6-7.4 0.5-2.4 0.9-4.2 1.2-5.5q-1.7 1.2-3.7 2.9c-9.3 8.3-17.8 12.9-26 14q-0.7 0.1-1.3 0.1c-3.3 0-6.4-1.8-8.1-4.8-1.8-3.3-1.4-7.5 1.1-10.4 3.6-4.3 9.1-12.4 9.7-16.1q0-0.3 0.1-0.6c2.3-10.2 5.7-16.6 10.8-20.2 7.1-5.1 20.3-8.9 41.3-12q1.1-0.2 2.2-0.2h14.1c4.6 0 8.6 3.5 9.1 8.1l0.7 5.6q0 0.5 0 1c0 2.1-0.6 4-1.5 6.2q-0.6 1.6-1.6 4c1.8 1.9 2.7 4.6 2.4 7.2-1.3 12-2.3 22.7-3.1 32.1-0.7 9.2-1.1 17.2-1.1 24 0 41.1 2.6 54.3 3.9 58.4q3.4 1 7.6 2.3c3.9 1.3 8.8 2.9 14.4 4.6 3.4 1.1 6 4.1 6.4 7.7 0.4 3.6-1.3 7.1-4.4 9-4.7 2.8-9.7 4.2-14.9 4.2l-53.9-0.3c-1.8 0-3.6-0.6-5-1.5q-1.4 0.2-2.8 0.4c-2.8 0.5-5.9 0.9-9.6 1.4q-0.6 0-1.2 0z"/>
						</g>
						<g id="g344">
							<path id="path346" fill-rule="evenodd" class="s1" d="m219.5 425l0.6 5.6q0.1 1.1 0.1 2.1c0 3.6-1 6.7-2 9.3 0.9 2.2 1.4 4.6 1.4 7.1q0 1.3-0.2 2.5c-1.2 11.7-2.2 22.2-3 31.3-0.7 8.9-1.1 16.8-1.1 23.3 0 30.4 1.4 44.6 2.5 51.1q1.3 0.4 2.6 0.9c4 1.3 8.8 2.8 14.3 4.5 6.9 2.1 12 8.1 12.8 15.4 0.9 7.2-2.5 14.2-8.7 18-6.2 3.7-12.8 5.6-19.7 5.6q0 0-0.1 0l-53.9-0.4c-2.2 0-4.4-0.4-6.4-1.2-2.8 0.5-6.1 0.9-9.8 1.4q-1.1 0.2-2.3 0.2c-5.6 0-11.1-2.7-14.6-7.3l-3.2-4.2c-6.1-8-4.7-19.4 3.1-25.6l7.8-6.3c2.4-1.8 5.2-3.1 8.1-3.7l4.3-0.8c0.1-2.1 0.2-6 0-13.6q0-0.1 0-0.2l-0.4-14.7q0-2.5 0.6-4.9 0.3-1.2 0.7-2.6-0.6-1.7-0.8-3.6c-0.2-0.6-0.6-2.6-1.9-7.8q-0.2-0.8-0.3-1.6c-0.8-5.2-1.2-9.4-1.2-13 0-2.4 0.4-4.7 1.3-6.9-5.9 3.5-11.8 5.6-17.6 6.4q-1.3 0.2-2.5 0.2c-6.7 0-12.9-3.6-16.2-9.5-3.6-6.7-2.8-15 2.1-20.8 3.3-3.9 7-9.7 7.7-11.9q0.1-0.5 0.2-1c2.8-12.5 7.4-20.6 14.4-25.6q0.1 0 0.1-0.1c8.4-5.9 22.3-10.1 44.8-13.4q2-0.4 4-0.5h14.1c9.3 0 17.2 7 18.3 16.3zm-32 2.2q-29.8 4.2-38.6 10.5-4.5 3.2-7.1 14.7c-1.4 8.3-11.8 20.7-11.8 20.7q9.5-1.3 21.2-11.8 11.1-9.5 18.3-9.5h1l0.3 9.5q0 2.3-2 11.4l10.2 11.5-8.5-4.2-0.3 2.9 16.9 25.6q-11.7-11.8-19.6-17.4l-0.3 0.7q0 3.9 1 10.1 2.3 9.2 2.3 10.2l3.6-1.3 0.6 0.6q-1.6 4.3-2.7 7.6-1.2 3.3-1.8 5.9l0.3 14.7q0.3 11.2 0 16.1-0.3 7.2-3.6 14.1l-15.7 2.9-7.8 6.3 3.2 4.2q5.3-0.6 9.4-1.3 4-0.6 7.6-1.3 4.3-1 16.3-5.9l-14.6 8.2 53.8 0.3q5.2 0 10.2-2.9-8.5-2.6-14.6-4.6-6-2-10.3-3-7.5-3.6-7.5-66.5 0-10.5 1.2-24.8 1.1-14.2 3.1-32.3-1.7 0.4-3 0.5-1.3 0.2-1.9 0.2h-1q0.3-1.3 1.1-3.4 0.8-2.2 2.5-5.8 1.3-3.3 2.1-5.2 0.8-2 0.8-2.7l-0.6-5.5zm0 0h-0.4zm0 0h0.1"/>
						</g>
						<g id="g348">
							<path id="path350" class="s4" d="m294.6 592.8q-6.7 0-12.2-5.3c-8.2 2.9-19.4 4.3-33.8 4.3h-6.2c-2.4 0-4.4-0.2-6.1-0.5-3.2-0.7-5.9-3-6.9-6.1-1.1-3.1-0.4-6.5 1.8-9 9.1-10.5 17.4-19.7 24.5-27.3 7.1-7.6 13.2-14.1 18.3-19.2q1.1-1.1 2.5-1.7 0.2-0.1 0.5-0.3c-0.3-2.8 0.7-5.6 2.8-7.6 4.2-4.1 7.5-7.3 9.6-9.5 2.8-2.9 4.3-4.3 5.3-5.1q1.6-1.4 3.5-2.9c-0.3-2.1 0.1-4.3 1.3-6.1 9.9-16.3 12-25.2 12-29.8 0-5.1 0-14.7-23.1-14.7-5.8 0-11 1.5-15.9 4.3q-0.1 0.1-0.2 0.1c-6.4 3.6-6.4 6.6-6.4 7.7 0 2.3 3.2 6.7 12.1 11.9 3.9 2.3 5.6 7 4 11.1-1.3 3.7-4.8 6.1-8.6 6.1q-0.8 0-1.6-0.1c-13.4-2.3-21.6-5.1-26.5-9-7.9-5.7-11.8-14.9-11.8-27.2 0-13.7 9.3-24.4 27.6-31.7 12.1-5 25.3-7.6 39-7.6 5.1 0 11 0.7 18.2 2.2q0.1 0 0.1 0c10.9 2.4 16.6 4.9 19.7 8.9 0.9 1.1 1.5 2.4 1.7 3.7q1.7 0.4 3.4 0.8c4.1 1.1 7 4.8 7 9v1.3c5 4.3 9.4 11.8 9.4 24.8 0 15.7-10.1 34.9-31 58.7-9.5 10.8-19.8 21.2-30.6 31q3.6 0 7 0c20.1 0 29.7-1.6 34.2-2.9-1.3-1.1-3.3-2.5-6.1-4.2-3.6-2.3-5.2-6.8-3.8-10.8 1.3-3.8 4.8-6.2 8.7-6.2q0.5 0 0.9 0c27.1 2.7 31.2 18 31.2 26.8 0 7.3-2.8 20.6-21.2 27q-0.2 0-0.3 0.1c-3.4 1-7.6 1.8-12.8 2.5q-7.2 0.7-17.1 1.2-0.1 0-0.3 0c-2 0-3.9-0.7-5.4-1.8q-8.5 3.1-18.4 3.1z"/>
						</g>
						<g id="g352">
							<path id="path354" fill-rule="evenodd" class="s1" d="m320.1 410.7q0.1 0.1 0.3 0.1c11.1 2.4 19.7 5.4 25 12.2q0.6 0.8 1.1 1.6c6.7 2.1 11.7 7.9 12.7 14.9 5.2 5.7 9.6 14.8 9.6 28.8 0 16.4-8.4 34.6-26.5 56.7 10.1 1.3 18 4.3 24.1 9 8.3 6.4 12.9 15.9 12.9 26.7 0 16.6-10 29.6-27.4 35.7q-0.3 0.1-0.6 0.2c-4 1.2-8.7 2.1-14.4 2.8-5 0.6-11.1 1-17.8 1.3q-0.4 0-0.7 0c-2.1 0-4.2-0.4-6.1-1.1q-8.4 2.4-17.7 2.4c-4 0-9-1-14.1-4.3-8.5 2.2-19 3.3-31.9 3.3h-6.2c-3 0-5.6-0.2-7.9-0.7-6.5-1.3-11.7-5.9-13.8-12.1-2.1-6.3-0.8-13.1 3.6-18.1 9.1-10.5 17.5-19.7 24.6-27.5 7.2-7.7 13.5-14.3 18.6-19.4q0.3-0.3 0.7-0.6c0.8-3.5 2.5-6.7 5.2-9.2 4.2-3.9 7.3-7 9.3-9.2 2.8-2.8 4.6-4.5 6.1-5.8q0.2-0.1 0.4-0.3c0.4-2.2 1.2-4.4 2.4-6.4 9.9-16.2 10.7-23.3 10.7-25 0-2.2-0.4-2.9-0.4-2.9-0.5-0.6-4-2.5-13.5-2.5-4.1 0-7.8 0.9-11.3 3 1.2 1 3 2.3 5.6 3.8 7.7 4.5 11 13.8 8 22.2-2.7 7.4-9.7 12.1-17.3 12.1q-1.5 0-3.1-0.3c-14.9-2.5-24.4-5.8-30.6-10.7-7.1-5.2-15.4-15.5-15.4-34.5 0-12.2 5.8-29.1 33.3-40.3 13.3-5.4 27.6-8.2 42.5-8.2 5.7 0 12.2 0.8 20 2.3zm-55.5 23q-21.9 8.8-21.9 23.2 0 14 8.1 19.9 5.3 4.2 22.6 7.2-16.7-9.8-16.7-19.9 0-9.5 11.1-15.7 9.5-5.6 20.6-5.6 32.3 0 32.3 23.9 0 12.7-13.4 34.6l4.3 0.3 5.9-0.6q-5.6 3.2-9.8 6.2-4.3 2.9-7.2 5.5-1 0.7-4.4 4.3-3.5 3.6-10 9.7 6.2 0.1 9.5 2.3-4.6 2.6-8.5 4.3-3.9 1.6-6.5 2.9-7.6 7.5-18.2 19-10.6 11.4-24.3 27.1 1.6 0.3 4.3 0.3h6.2q26.4 0 36.5-6.6 4.6 7.6 9.5 7.6 17 0 28.7-10.8l-4.9 9.5q9.5-0.4 16.4-1.2 6.8-0.8 11.1-2.1 15-5.2 15-18.3 0-15.3-22.9-17.6 13.1 8.1 13.1 13.4 0 10.7-46.1 10.7-7.5 0-15.3-0.3-7.8-0.3-15.3-1 25.7-20.5 47.3-45 28.7-32.7 28.7-52.6 0-15.3-9.4-19.9v-6.2q-6.6-1.6-12.8-2.8-6.2-1.1-12.1-2.1h-0.3l15-2.9q-2.2-3-14.3-5.6-9.8-2-16.4-2-18.9 0-35.5 6.9z"/>
						</g>
						<g id="g356">
							<path id="path358" fill-rule="evenodd" class="s4" d="m419.3 591.8c-4.5 0-8.3-3.3-9.1-7.7-0.7-4.6 2-9 6.4-10.3 0.8-0.3 3.2-1.3 8.2-5.1q0.2-0.1 0.4-0.2 4.2-3 6.9-4.8 0.6-0.4 1.1-0.8-0.1-0.2-0.1-0.4c-0.7-1.7-1.3-3.7-1.8-5.8-1-3.8 0.6-7.7 3.8-9.9l2-1.3c1.3-0.8 2.8-1.4 4.3-1.5l-3.9-5.1c-1.3-1.6-1.9-3.6-1.9-5.6v-19.3c0-2.3 0.9-4.6 2.4-6.3l5.5-5.8c-2.7-1.9-4.7-3.9-6.2-6.1-3.5-4.9-4.8-11.8-4-21.2 0.3-2.6 1.6-4.9 3.7-6.5q0-0.1-0.1-0.1c-3.3-6.3-5.1-11.9-5.2-17.1l-1.5 0.9c-2.6 1.6-5.1 3-7.5 4-1.2 0.6-2.5 0.8-3.7 0.8-2.4 0-4.7-0.9-6.5-2.7l-0.3-0.3c-1.8-1.7-2.7-4.1-2.7-6.5 0-5.2 3.3-10 12.2-18q0.1-0.1 0.2-0.2c2.8-2.3 5.1-4.2 7.1-5.7 2.3-1.9 4.4-3.3 6.3-4.4 1.2-0.6 2.5-1 3.9-1.1 2.9-0.3 5.8-0.4 8.6-0.5q4.4-0.2 9.1-0.2c-0.1 0 0.8-0.1 2.9-1 3.8-1.7 8.1-2.6 12.8-2.9q4.3-0.3 7.7-0.3 1.8 0 3.3 0.1 4 0.2 6.6 0.2c26.9 0 46.7 3.9 60.6 12 15.1 8.8 23 21.7 23 37.3 0 9.5-2.6 21.4-13 31.2 19.4 9.9 24.1 25.9 24.1 39 0 25.4-13.3 43-38.4 50.9-13.1 4.2-34.1 6.3-64.1 6.3h-3.1l-10.5 0.7q-0.1 0-0.3 0c0 0-49.1 1.3-49.2 1.3zm70.9-34.1c6 2.7 8.8 4 10.1 4.6 17.5-0.2 21-3 21.2-3.1 1.1-0.9 2.5-1.6 3.9-1.9 0.6-0.2 1.9-0.4 3.3-2q-0.1-0.7-0.1-1.5 0-1.7 0.6-3.2-0.3-1.9-0.3-4.3c0-3 1.5-5.8 4-7.5q0-0.5 0-1c0-7.5 0-25-40.1-25q-1.8 0-3.2 0l-2.3 30q-0.3 3.3 0.6 7.8 0.7 3.3 2.3 7.1z"/>
						</g>
						<g id="g360">
							<path id="path362" fill-rule="evenodd" class="s1" d="m484 403.7c2.5 0.1 4.6 0.2 6.2 0.2 28.6 0 49.9 4.3 65.2 13.2 22.8 13.4 27.6 32 27.6 45.3 0 11-2.9 20.7-8.4 29 16.4 12.7 19.5 29.9 19.5 41.2 0 29.4-15.9 50.5-44.8 59.7-14.1 4.5-35.9 6.7-66.8 6.7-0.1 0-2.8 0-2.9 0l-10.2 0.7q-0.3 0-0.6 0l-49 1.3q-0.2 0-0.5 0c-9 0-16.7-6.5-18.2-15.4-1.4-9.1 3.9-17.8 12.6-20.6 0.4-0.1 2-0.9 5.6-3.6q0.3-0.3 0.6-0.5 1.3-0.9 2.5-1.7 0-0.1-0.1-0.3c-1.6-6.7 0.6-13.6 5.6-18.1q-1.5-3.6-1.5-7.5v-19.3c0-4.3 1.5-8.4 4.2-11.7q-0.4-0.5-0.8-1.1c-4.9-6.8-6.7-15.8-5.6-27.4 0.2-2.5 0.9-4.8 2-6.9q-0.5-1.1-0.9-2.2c-2 0.8-4.2 1.1-6.3 1.1-4.8 0-9.5-1.8-13-5.3l-0.3-0.4c-3.5-3.4-5.5-8.1-5.5-13 0-9.3 5.9-16.4 15.3-24.9q0.3-0.2 0.5-0.4c2.9-2.3 5.3-4.3 7.4-5.9 2.7-2.1 5.1-3.7 7.3-5 2.4-1.4 5.1-2.2 7.8-2.4q4.5-0.4 9-0.6 3.9-0.1 8.1-0.1 0.2-0.1 0.6-0.3c4.7-2 10-3.3 15.9-3.6q0 0 0.1 0c2.9-0.2 5.7-0.3 8.1-0.3q1.9 0 3.7 0.1zm-10.8 18.6q-5.6 0.3-9.6 2.1-4.1 1.8-6.7 1.8-4.6 0-8.7 0.2-4.1 0.1-8.3 0.4-2.3 1.4-5.2 3.6-3 2.3-6.9 5.6-9.1 8.1-9.1 11.1l0.3 0.3q2.9-1.3 6.4-3.4 3.4-2.1 7.6-4.8l6.2 0.4 7.2-0.4q-5.5 4.6-5.5 10.8 0 5.9 4.2 13.7 2.9 5.9 4.4 9 1.5 3.1 1.8 3.8l-0.3 0.3q-1.7-0.7-3.4-1.1-1.8-0.5-3.8-1.2l-1.3 1q-1 10.4 2.3 15 3.2 4.6 13.4 9.1l-13.4 14.4v19.3l20.9 27.1h-1q-7.5-2.3-13.2-4.1-5.7-1.8-9.3-3.1l-2 1.3q0.7 2.6 1.5 4.7 0.8 2.2 1.8 4.4l-2.6 5.3q-1 0.6-3.6 2.4-2.6 1.8-6.9 4.7-6.8 5.3-11.1 6.6l49-1.3 10.8-0.7h2.6q43.7 0 62-5.9 32-10.1 32-42.1 0-29-36.2-36.5 25.1-10.2 25.1-33.7 0-18.6-18.4-29.4-18.5-10.7-56-10.7-2.7 0-6.9-0.2-1.4 0-3 0-3.2 0-7.1 0.2zm10.1 142.3q-3.3-6.5-4.4-12.2-1.1-5.7-0.8-10.3l2.9-37.6q3.3-0.9 11.8-0.9 49.3 0 49.3 34.3l12.4 13.7q-0.3 0-0.3 0.3-5.6-1.6-9.5-3.1-3.9-1.5-6.5-2.5 0 3.3 0.6 4.6l0.3-0.3 4.9 5.5q-1.6-0.6-3.1-1.3-1.4-0.6-2.7-1.3l-0.3 0.3q0.3 0.2 1.2 2.3-4.2 8.5-11.7 10.2-6.2 5.2-28.7 5.2-0.7 0-15.4-6.9zm13.7-15.8q0.2 1 0.5 2.1c2.1 1 3.6 1.6 4.7 2.1 9.4-0.2 13.2-1.2 14.3-1.6q1.6-1.2 3.3-2-0.1-1.7-0.1-3.1c0-4.1 1.4-8 3.8-11.1-0.6-5.4-2.9-7-4.3-7.9-2.5-1.8-8.4-4.6-21.1-5.2l-1.6 21.4c-0.1 0.9-0.1 2.6 0.5 5.3zm40.8 5h0.1q0-0.1 0-0.1-0.1 0-0.1 0.1zm-55.5 26.8h-0.6z"/>
						</g>
						<g id="g364">
							<path id="path366" class="s4" d="m396.6 593.1q-1.1 0-2.3 0c-16.2-0.9-25.3-10.3-24.5-25 0.3-6.3 3.3-11.9 8.7-16.2q7-5.7 16.2-5.7 0.7 0 1.5 0.1c6.2 0.3 11.8 2.4 16.7 6.1 5.7 4.4 8.6 10.7 8.3 17.6-0.8 14.5-10 23.1-24.6 23.1z"/>
						</g>
						<g id="g368">
							<path id="path370" fill-rule="evenodd" class="s1" d="m396.7 537.1c8.1 0.4 15.5 3.1 21.8 8 8.2 6.4 12.4 15.4 11.8 25.4-1 19.3-14.3 31.8-33.7 31.8q-1.4 0-2.8 0c-21.3-1.2-34.3-14.8-33.2-34.7 0.5-9 4.7-16.9 12.1-22.9 6.3-5 13.9-7.7 22-7.7q1 0 2 0.1zm-12.5 22q-4.9 4-5.2 9.5-0.8 14.4 15.8 15.3 0.9 0 1.8 0 14.6 0 15.4-14.5 0.3-5.8-4.7-9.7-5.1-3.9-11.6-4.2-0.5-0.1-1-0.1-5.9 0-10.5 3.7z"/>
						</g>
						<g id="g372">
							<path id="path374" class="s1" d="m536.5 456.1c-2.1-5.4-7.5-8.5-12.6-10.8-5.6-2.5-11.4-4.1-17.5-4.9q-9.8-1.2-19.5 0c-3.4 0.4-7.2 0.7-10.4 2.2-3.3 1.6-5.6 5.3-4.4 9 1.2 11.2 3.7 22.9 13.5 29.6 4.9 3.3 10.8 4.5 16.5 5 6 0.6 12.3 0.4 17.8-2.2 5.2-2.5 8.9-7.2 12-11.8 3.2-4.7 6.9-10.2 4.6-16.1z"/>
						</g>
						<g id="g376">
							<path id="path378" class="s1" d="m565.1 488.8c-6.4-3.7-12.9-7.2-19.4-10.7q-4.8-2.6-9.6-5.2c-3.3-1.8-6.6-3.9-10.1-5.2-2.9-1-5.7 3.4-3.1 5.4 2.9 2.3 6.4 4 9.7 5.9q4.7 2.6 9.5 5.3c6.4 3.6 12.9 7.2 19.4 10.7 4 2.4 7.7-3.9 3.6-6.2z"/>
						</g>
						<g id="g380">
							<path id="path382" class="s1" d="m572.4 487.3c-1.5-1.4-3.4-2.2-5.2-3.2q-2.7-1.4-5.3-2.8-5.4-2.9-10.9-5.8-5.2-2.8-10.5-5.6-2.7-1.3-5.3-2.7c-1.9-0.9-3.9-2.3-5.9-2.7-3-0.5-5.4 2.9-3.1 5.3 1.4 1.5 3.4 2.3 5.1 3.3q2.6 1.4 5.3 2.9 5.4 2.9 10.8 5.8 5.2 2.8 10.5 5.6 2.6 1.4 5.3 2.8c1.9 1.1 3.8 2.3 5.9 2.8 3.2 0.8 6-3.3 3.3-5.7z"/>
						</g>
						<g id="g384">
							<path id="path386" class="s1" d="m485.2 446.7c-1.8-1.3-4-2.2-6-3.2q-3-1.5-5.9-3.1-5.8-3.1-11.5-6.4c-7.8-4.3-15.3-9-23-13.5-3.6-2.2-6.7 3.3-3.3 5.7 7.4 5.1 15.2 9.7 22.9 14.2q5.7 3.3 11.5 6.4 3 1.6 6 3.2c2.1 1.1 4.3 2.5 6.6 3.1 1.6 0.5 3.5-0.4 4.1-2 0.7-1.8 0-3.3-1.4-4.4z"/>
						</g>
						<g id="g388">
							<path id="path390" class="s1" d="m493.2 445.2c-8.1-4.7-16.5-8.6-24.7-13.1q-6.1-3.3-12.1-6.8c-4-2.3-8-5-12.2-7.1-3.9-1.9-6.7 3.2-3.4 5.7 3.8 2.8 8 5.1 12 7.5q6.1 3.7 12.3 7.1c8.3 4.6 16.7 9.3 25.5 12.9 3.6 1.5 5.9-4.4 2.6-6.2z"/>
						</g>
						<g id="g392">
							<path id="path394" class="s4" d="m515.9 456.2c-0.5-1.3-2.2-2.4-3.7-1.8-3.3 1.3-6.3 3.1-9.2 5.1q-4.3 3-8.2 6.5c-1.3 1.1-1.2 3.4 0 4.6 1.4 1.3 3.2 1.1 4.6 0q0.4-0.4 0.9-0.7 0-0.1 0.1-0.1 0.2-0.2 0.3-0.3 0.3-0.2 0.5-0.4 0.4-0.3 0.6-0.4 0.4-0.4 0.9-0.7 1.9-1.4 3.9-2.7c2.6-1.8 5.4-3.3 8-5.1 1.3-0.9 2-2.4 1.3-4z"/>
						</g>
						<g id="g396">
							<path id="path398" class="s4" d="m514.2 467.4c-2.4-3.1-5.5-5.5-8.6-7.8q-4.5-3.4-9.4-6c-1.4-0.8-3.5-0.4-4.3 1.1-0.8 1.5-0.4 3.4 1.1 4.3q2.3 1.4 4.5 2.9 1.2 0.8 2.3 1.6 0.5 0.4 1.1 0.8 0.1 0.1 0.1 0.1 0.3 0.2 0.5 0.4 2.1 1.7 4.1 3.5 0.9 0.8 1.9 1.7 0.2 0.3 0.5 0.5c0.1 0.1 1 0.9 0.5 0.4q0.6 0.5 1.2 1c1.3 1.1 3.2 1.4 4.5 0 1.3-1.4 1.1-3.1 0-4.5z"/>
						</g>
					</g>
				</g>
			</g>
		</g>
	</g>
</svg>