<svg xmlns="http://www.w3.org/2000/svg" width="38" height="38" fill="none" viewBox="0 0 38 38">
  <g clip-path="url(#a)">
    <path fill="#fff" d="M1.3 2.39A314.215 314.215 0 0 0 .027 35.007a1.811 1.811 0 0 0 1.761 1.791L34.314 38c.703.026 1.576-.57 1.699-1.315 1.796-10.934 2.397-22.036 1.712-33.102-.066-1.052-.761-1.675-1.762-1.791A266.786 266.786 0 0 0 3.14.007c-2.265.017-2.27 3.6 0 3.583a266.88 266.88 0 0 1 32.823 1.784l-1.761-1.792c.665 10.736.157 21.538-1.586 32.15l1.698-1.316-32.527-1.2 1.762 1.792A314.219 314.219 0 0 1 4.823 2.389c.088-.964-.872-1.791-1.76-1.791-1.027 0-1.674.824-1.762 1.791Z"/>
    <path fill="#fff" d="M18.386 6.962a4.26 4.26 0 0 0-1.31.398c-.237.113-.452.297-.647.471a1.296 1.296 0 0 0-.148.16c-.127.158-.271.32-.364.505-.2.398-.306.753-.325 1.2-.019.451.108.814.287 1.213.207.461.643.888 1.078 1.13a2.999 2.999 0 0 0 1.639.39 6.39 6.39 0 0 0 1.833-.421c.26-.107.528-.205.755-.374.36-.268.605-.487.847-.87.146-.232.263-.5.314-.771.08-.428.107-.792-.007-1.22a2.406 2.406 0 0 0-.603-1.058c-.283-.292-.619-.462-.994-.597-.259-.094-.546-.119-.82-.13a2.617 2.617 0 0 0-.395.02c-.3.032-.609.06-.904.135a2.762 2.762 0 0 0-1.527 1.01 2.42 2.42 0 0 0-.453.898 2.656 2.656 0 0 0-.076.613c0 .163.04.36.066.521a.958.958 0 0 0 .028.13c.192.635.64 1.215 1.225 1.523a3.22 3.22 0 0 0 1.708.36c.562-.034 1.077-.11 1.58-.377a2.194 2.194 0 0 0 1.072-2.46c-.266-.998-1.214-1.67-2.216-1.662-.631.005-1.241.257-1.795.542-.44.227-.843.543-1.207.878-.325.299-.516.831-.516 1.267 0 .44.192.965.516 1.267.335.313.776.546 1.245.525a1.9 1.9 0 0 0 1.245-.525 4.58 4.58 0 0 1 .251-.214l-.356.28a3.98 3.98 0 0 1 .848-.5l-.42.18a2.55 2.55 0 0 1 .54-.171l-.467.064a1 1 0 0 1 .232-.002l-.469-.064a.69.69 0 0 1 .143.041l-.42-.18a.739.739 0 0 1 .116.073l-.357-.28c.024.02.045.041.064.065l-.275-.362a.57.57 0 0 1 .067.115l-.178-.428c.01.029.017.057.02.087l-.063-.476a.348.348 0 0 1-.003.084l.063-.476a.338.338 0 0 1-.02.071l.178-.428a.497.497 0 0 1-.053.092l.275-.362a.643.643 0 0 1-.078.076l.357-.28a.884.884 0 0 1-.134.078l.42-.18a1.476 1.476 0 0 1-.359.096l.468-.064a3.15 3.15 0 0 1-.782.017l.468.064a1.356 1.356 0 0 1-.31-.086l.42.181a1.17 1.17 0 0 1-.194-.117l.357.28a1.05 1.05 0 0 1-.159-.16l.276.362a.927.927 0 0 1-.088-.153l.177.428a.788.788 0 0 1-.043-.171l.063.476a.847.847 0 0 1 .002-.137l-.063.476a.842.842 0 0 1 .05-.175l-.177.428c.027-.056.058-.107.095-.158l-.276.363c.05-.062.104-.115.165-.165l-.356.28c.068-.05.138-.09.214-.125l-.42.18a2.2 2.2 0 0 1 .531-.133l-.468.064c.223-.029.445-.051.67-.024l-.469-.064c.089.014.172.036.255.07l-.42-.18a.816.816 0 0 1 .144.09l-.357-.28a.75.75 0 0 1 .09.097l-.275-.363a.765.765 0 0 1 .066.117l-.178-.428a.848.848 0 0 1 .035.127l-.063-.476c.008.06.009.118.004.178l.063-.476a.999.999 0 0 1-.056.223l.178-.428a1.124 1.124 0 0 1-.113.203l.275-.362a1.1 1.1 0 0 1-.168.173l.357-.28c-.11.086-.229.152-.356.21l.421-.181a5.228 5.228 0 0 1-1.189.338l.468-.064c-.176.024-.35.03-.526.008l.468.064a1.369 1.369 0 0 1-.275-.074l.42.18a1.32 1.32 0 0 1-.276-.161l.357.28a1.19 1.19 0 0 1-.188-.194l.275.363a1.016 1.016 0 0 1-.105-.193l.177.428a.955.955 0 0 1-.043-.17l.063.476a.93.93 0 0 1 .002-.186l-.063.476a.92.92 0 0 1 .05-.183l-.178.428c.032-.074.071-.141.118-.207l-.275.363c.06-.078.128-.145.204-.207l-.357.28c.098-.074.2-.13.312-.178l-.421.18c.262-.102.536-.144.812-.183.405-.057.858-.484 1.053-.823.22-.384.314-.95.177-1.381-.137-.433-.401-.852-.809-1.07l-.42-.181a1.745 1.745 0 0 0-.937 0Zm-8.6 13.479 17.57.35c2.268.045 2.268-3.538 0-3.584l-17.57-.349c-2.268-.045-2.268 3.538 0 3.583Zm0 8.357 17.57.35c2.268.044 2.268-3.539 0-3.584l-17.57-.349c-2.268-.045-2.268 3.538 0 3.583Z"/>
  </g>
  <defs>
    <clipPath id="a">
      <path fill="#fff" d="M0 0h38v38H0z"/>
    </clipPath>
  </defs>
</svg>
