<svg xmlns="http://www.w3.org/2000/svg" width="31" height="41" fill="none" viewBox="0 0 31 41">
  <g clip-path="url(#a)">
    <path fill="#fff" d="M5.022 38.548 4.397 2.503 1.129 3.846l26.138 22.526 1.862-3.176c-3.077-.79-6.157-1.571-9.24-2.34-2.716-.678-5.962-1.827-8.07.726-.904 1.094-1.517 2.435-2.21 3.663l-2.422 4.3L2.53 37.81c-1.204 2.137 2.101 4.055 3.306 1.918 2.795-4.96 5.556-9.94 8.385-14.88.435-.76.615-1.196 1.55-1.075 1.288.167 2.584.616 3.842.93 2.835.71 5.668 1.429 8.5 2.156 1.754.451 3.363-1.882 1.862-3.175L3.836 1.159C2.637.126.538.764.568 2.503l.626 36.045c.042 2.442 3.87 2.45 3.828 0Z"/>
  </g>
  <defs>
    <clipPath id="a">
      <path fill="#fff" d="M.568.662h30v40h-30z"/>
    </clipPath>
  </defs>
</svg>
