<svg xmlns="http://www.w3.org/2000/svg" width="44" height="47" fill="none" viewBox="0 0 44 47">
  <g clip-path="url(#a)">
    <path fill="#fff" d="m19.36 29.544 14.107-14.806c1.177-1.236 1.47-3.43.34-4.682-1.09-1.209-3.002-1.396-4.259-.077L15.442 24.786c-1.177 1.235-1.47 3.43-.341 4.682 1.091 1.208 3.003 1.395 4.26.076ZM9.907 24.07 24.013 9.263c1.177-1.235 1.47-3.43.341-4.68-1.091-1.21-3.003-1.397-4.26-.078L5.988 19.312c-1.177 1.235-1.47 3.43-.341 4.681 1.091 1.21 3.003 1.396 4.26.077Zm13.38 17.82 14.107-14.808c1.176-1.235 1.47-3.43.34-4.68-1.091-1.21-3.003-1.397-4.26-.078L19.368 37.131c-1.177 1.235-1.47 3.43-.34 4.681 1.09 1.21 3.002 1.396 4.259.077Z"/>
  </g>
  <defs>
    <clipPath id="a">
      <path fill="#fff" d="m11.582.148 31.547 9.865-11.331 36.234L.251 36.382z"/>
    </clipPath>
  </defs>
</svg>
