<?xml version="1.0" standalone="no"?>
<!DOCTYPE svg PUBLIC "-//W3C//DTD SVG 20010904//EN"
 "http://www.w3.org/TR/2001/REC-SVG-20010904/DTD/svg10.dtd">
<svg version="1.0" xmlns="http://www.w3.org/2000/svg"
 width="700.000000pt" height="700.000000pt" viewBox="0 0 700.000000 700.000000"
 preserveAspectRatio="xMidYMid meet">
<metadata>
Created by potrace 1.14, written by Peter Selinger 2001-2017
</metadata>
<g transform="translate(0.000000,700.000000) scale(0.100000,-0.100000)"
fill="#000000" stroke="none">
<path d="M3357 6994 c-1 -1 -51 -4 -111 -8 -60 -3 -118 -8 -130 -11 -11 -2
-43 -7 -71 -10 -27 -3 -63 -7 -80 -10 -101 -17 -98 -16 -195 -36 -315 -63
-698 -208 -995 -377 -166 -95 -395 -252 -508 -350 -134 -116 -221 -198 -316
-299 -411 -437 -701 -965 -845 -1538 -21 -84 -32 -138 -61 -295 -1 -8 -6 -37
-9 -65 -4 -27 -9 -66 -11 -85 -20 -153 -27 -557 -13 -705 4 -38 10 -97 14
-130 26 -262 126 -641 242 -920 123 -297 325 -636 508 -855 212 -253 464 -493
664 -630 19 -13 37 -27 40 -30 13 -14 99 -70 108 -70 6 0 12 -4 14 -8 9 -24
510 -292 545 -292 5 0 28 -9 51 -20 38 -19 275 -98 402 -134 75 -22 331 -73
405 -82 33 -3 63 -8 66 -10 29 -17 587 -26 739 -11 243 22 468 66 694 133
1019 304 1857 1075 2249 2069 45 113 100 275 113 330 1 6 16 66 33 135 16 69
32 139 36 155 8 44 33 203 39 255 20 154 26 486 12 675 -76 1025 -608 1970
-1450 2576 -426 306 -937 520 -1445 604 -224 37 -338 47 -564 49 -92 1 -169 1
-170 0z"/>
</g>
</svg>
